<?xml version="1.0" encoding="UTF-8"?>
<!DOCTYPE svg PUBLIC "-//W3C//DTD SVG 1.1//EN" "http://www.w3.org/Graphics/SVG/1.1/DTD/svg11.dtd">
<!-- Creator: CorelDRAW 2018 (64-Bit) -->
<svg xmlns="http://www.w3.org/2000/svg" xml:space="preserve" width="52px" height="64px" version="1.1" style="shape-rendering:geometricPrecision; text-rendering:geometricPrecision; image-rendering:optimizeQuality; fill-rule:evenodd; clip-rule:evenodd"
viewBox="0 0 7.2 8.89"
 xmlns:xlink="http://www.w3.org/1999/xlink">
 <defs>
  <style type="text/css">
   <![CDATA[
    .fil0 {fill:#312F30}
   ]]>
  </style>
 </defs>
 <g id="Layer_x0020_1">
  <metadata id="CorelCorpID_0Corel-Layer"/>
  <path class="fil0" d="M4.13 3.74c0.04,-0.45 0.26,-1.11 0.37,-1.56 0.31,-1.28 0.18,-1.22 0.71,-1.17 0.03,0.16 -0.56,2.44 -0.65,2.73l-0.43 0zm2.11 -2.72c0.6,-0.08 0.7,0.14 0.79,-0.21 0.05,-0.18 0.16,-0.6 0.17,-0.78 -0.74,-0.03 -2.82,-0.07 -3.44,0.07 -2.74,0.6 -3.02,3.2 -2.29,3.98 0.27,0.29 0.64,0.51 1.16,0.59 0.52,0.07 1.2,-0.02 1.66,0.06 0,0.33 -0.36,1.5 -0.5,1.8 -0.24,0.54 -0.59,1.01 -1.06,1.25 -0.52,0.26 -1.62,0.31 -1.61,-0.43 0.01,-0.53 0.34,-0.86 0.79,-0.98l0.46 -0.1 0.16 -0.74c-1.24,-0.48 -2.81,0.87 -2.49,2.28 0.32,1.38 2.45,1.3 3.45,0.56 1.05,-0.78 1.33,-1.76 1.72,-3.35 0.17,-0.68 0.33,-1.33 0.5,-2 0.1,-0.38 0.39,-1.75 0.53,-2z"/>
 </g>
</svg>
