<?xml version="1.0" encoding="UTF-8"?>
<!DOCTYPE svg PUBLIC "-//W3C//DTD SVG 1.1//EN" "http://www.w3.org/Graphics/SVG/1.1/DTD/svg11.dtd">
<!-- Creator: CorelDRAW 2018 (64-Bit) -->
<svg xmlns="http://www.w3.org/2000/svg" xml:space="preserve" width="52px" height="64px" version="1.1" style="shape-rendering:geometricPrecision; text-rendering:geometricPrecision; image-rendering:optimizeQuality; fill-rule:evenodd; clip-rule:evenodd"
viewBox="0 0 18.36 22.69"
 xmlns:xlink="http://www.w3.org/1999/xlink">
 <defs>
  <style type="text/css">
   <![CDATA[
    .fil0 {fill:#1D1C1C}
   ]]>
  </style>
 </defs>
 <g id="Layer_x0020_1">
  <metadata id="CorelCorpID_0Corel-Layer"/>
  <path class="fil0" d="M10.53 9.55c0.11,-1.15 0.67,-2.83 0.95,-4 0.8,-3.26 0.47,-3.09 1.8,-2.97 0.08,0.4 -1.42,6.23 -1.65,6.96l-1.1 0.01zm5.38 -6.95c1.53,-0.21 1.79,0.37 2.03,-0.53 0.13,-0.47 0.42,-1.54 0.42,-1.99 -1.88,-0.08 -7.18,-0.19 -8.77,0.16 -7,1.56 -7.7,8.18 -5.85,10.17 0.69,0.73 1.63,1.31 2.98,1.5 1.33,0.19 3.04,-0.04 4.23,0.15 0,0.85 -0.94,3.83 -1.28,4.6 -0.61,1.38 -1.51,2.59 -2.7,3.18 -1.32,0.66 -4.14,0.81 -4.11,-1.1 0.03,-1.35 0.87,-2.17 2,-2.5l1.19 -0.25 0.41 -1.89c-3.16,-1.22 -7.17,2.23 -6.35,5.83 0.8,3.51 6.24,3.31 8.79,1.41 2.68,-1.98 3.39,-4.47 4.4,-8.52 0.44,-1.75 0.85,-3.41 1.28,-5.12 0.24,-0.96 0.99,-4.47 1.33,-5.1z"/>
 </g>
</svg>
